<?xml version="1.0" encoding="UTF-8" standalone="no"?>
<!-- Created with Inkscape (http://www.inkscape.org/) -->

<svg
   xmlns:dc="http://purl.org/dc/elements/1.1/"
   xmlns:cc="http://creativecommons.org/ns#"
   xmlns:rdf="http://www.w3.org/1999/02/22-rdf-syntax-ns#"
   xmlns:svg="http://www.w3.org/2000/svg"
   xmlns="http://www.w3.org/2000/svg"
   xmlns:sodipodi="http://sodipodi.sourceforge.net/DTD/sodipodi-0.dtd"
   xmlns:inkscape="http://www.inkscape.org/namespaces/inkscape"
   width="744.09448819"
   height="1052.3622047"
   id="svg2"
   version="1.1"
   inkscape:version="0.48.5 r10040"
   sodipodi:docname="New document 1">
  <defs
     id="defs4">
    <clipPath
       id="clipPath3001"
       clipPathUnits="userSpaceOnUse">
      <path
         id="path3003"
         d="m 180,180 5580,0 0,7740 -5580,0 0,-7740 z" />
    </clipPath>
  </defs>
  <sodipodi:namedview
     id="base"
     pagecolor="#ffffff"
     bordercolor="#666666"
     borderopacity="1.0"
     inkscape:pageopacity="0.0"
     inkscape:pageshadow="2"
     inkscape:zoom="11.2"
     inkscape:cx="363.81526"
     inkscape:cy="520.54665"
     inkscape:document-units="px"
     inkscape:current-layer="layer1"
     showgrid="false"
     inkscape:window-width="1920"
     inkscape:window-height="1017"
     inkscape:window-x="-8"
     inkscape:window-y="-8"
     inkscape:window-maximized="1" />
  <metadata
     id="metadata7">
    <rdf:RDF>
      <cc:Work
         rdf:about="">
        <dc:format>image/svg+xml</dc:format>
        <dc:type
           rdf:resource="http://purl.org/dc/dcmitype/StillImage" />
        <dc:title></dc:title>
      </cc:Work>
    </rdf:RDF>
  </metadata>
  <g
     inkscape:label="Layer 1"
     inkscape:groupmode="layer"
     id="layer1">
    <g
       transform="matrix(1.25,0,0,-1.25,316.6201,582.76208)"
       inkscape:label="ink_ext_XXXXXX"
       id="g2993">
      <g
         transform="scale(0.1,0.1)"
         id="g2995">
        <g
           id="g2997">
          <g
             clip-path="url(#clipPath3001)"
             id="g2999">
            <path
               id="path3005"
               style="fill:#000000;fill-opacity:1;fill-rule:nonzero;stroke:none"
               d="m 432.813,422.758 17.0078,0 0,6.37891 -17.0078,0 0,-6.37891 z"
               inkscape:connector-curvature="0" />
            <path
               id="path3007"
               style="fill:#000000;fill-opacity:1;fill-rule:nonzero;stroke:none"
               d="m 432.813,411.703 17.0078,0 0,6.37891 -17.0078,0 0,-6.37891 z"
               inkscape:connector-curvature="0" />
            <path
               id="path3009"
               style="fill:#000000;fill-opacity:1;fill-rule:nonzero;stroke:none"
               d="m 432.813,400.648 17.0078,0 0,6.37891 -17.0078,0 0,-6.37891 z"
               inkscape:connector-curvature="0" />
            <path
               id="path3011"
               style="fill:#000000;fill-opacity:1;fill-rule:nonzero;stroke:none"
               d="m 432.813,389.594 17.0078,0 0,6.37891 -17.0078,0 0,-6.37891 z"
               inkscape:connector-curvature="0" />
            <path
               id="path3013"
               style="fill:#000000;fill-opacity:1;fill-rule:nonzero;stroke:none"
               d="m 432.813,378.539 17.0078,0 0,6.37891 -17.0078,0 0,-6.37891 z"
               inkscape:connector-curvature="0" />
            <path
               id="path3015"
               style="fill:#000000;fill-opacity:1;fill-rule:nonzero;stroke:none"
               d="m 483.836,378.539 17.0078,0 0,6.37891 -17.0078,0 0,-6.37891 z"
               inkscape:connector-curvature="0" />
            <path
               id="path3017"
               style="fill:#000000;fill-opacity:1;fill-rule:nonzero;stroke:none"
               d="m 483.836,389.594 17.0078,0 0,6.37891 -17.0078,0 0,-6.37891 z"
               inkscape:connector-curvature="0" />
            <path
               id="path3019"
               style="fill:#000000;fill-opacity:1;fill-rule:nonzero;stroke:none"
               d="m 483.836,400.648 17.0078,0 0,6.37891 -17.0078,0 0,-6.37891 z"
               inkscape:connector-curvature="0" />
            <path
               id="path3021"
               style="fill:#000000;fill-opacity:1;fill-rule:nonzero;stroke:none"
               d="m 483.836,411.703 17.0078,0 0,6.37891 -17.0078,0 0,-6.37891 z"
               inkscape:connector-curvature="0" />
            <path
               id="path3023"
               style="fill:#000000;fill-opacity:1;fill-rule:nonzero;stroke:none"
               d="m 483.836,422.758 17.0078,0 0,6.37891 -17.0078,0 0,-6.37891 z"
               inkscape:connector-curvature="0" />
          </g>
        </g>
      </g>
    </g>
  </g>
</svg>
