<?xml version="1.0" encoding="UTF-8" standalone="no"?>
<!-- Created with Inkscape (http://www.inkscape.org/) -->

<svg
   xmlns:dc="http://purl.org/dc/elements/1.1/"
   xmlns:cc="http://creativecommons.org/ns#"
   xmlns:rdf="http://www.w3.org/1999/02/22-rdf-syntax-ns#"
   xmlns:svg="http://www.w3.org/2000/svg"
   xmlns="http://www.w3.org/2000/svg"
   xmlns:sodipodi="http://sodipodi.sourceforge.net/DTD/sodipodi-0.dtd"
   xmlns:inkscape="http://www.inkscape.org/namespaces/inkscape"
   width="744.09448819"
   height="1052.3622047"
   id="svg3188"
   version="1.1"
   inkscape:version="0.48.5 r10040"
   sodipodi:docname="ps_inverted_drawing_only.pdf">
  <defs
     id="defs3190">
    <clipPath
       id="clipPath3212"
       clipPathUnits="userSpaceOnUse">
      <path
         id="path3214"
         d="m 180,180 5940,0 0,7740 -5940,0 0,-7740 z" />
    </clipPath>
  </defs>
  <sodipodi:namedview
     id="base"
     pagecolor="#ffffff"
     bordercolor="#666666"
     borderopacity="1.0"
     inkscape:pageopacity="0.0"
     inkscape:pageshadow="2"
     inkscape:zoom="1.4"
     inkscape:cx="391.48512"
     inkscape:cy="498.36563"
     inkscape:document-units="px"
     inkscape:current-layer="layer1"
     showgrid="false"
     inkscape:window-width="1920"
     inkscape:window-height="1017"
     inkscape:window-x="-8"
     inkscape:window-y="-8"
     inkscape:window-maximized="1" />
  <metadata
     id="metadata3193">
    <rdf:RDF>
      <cc:Work
         rdf:about="">
        <dc:format>image/svg+xml</dc:format>
        <dc:type
           rdf:resource="http://purl.org/dc/dcmitype/StillImage" />
        <dc:title></dc:title>
      </cc:Work>
    </rdf:RDF>
  </metadata>
  <g
     inkscape:label="Layer 1"
     inkscape:groupmode="layer"
     id="layer1">
    <g
       transform="matrix(1.25,0,0,-1.25,316.61988,582.7445)"
       inkscape:label="ink_ext_XXXXXX"
       id="g3204">
      <g
         transform="scale(0.1,0.1)"
         id="g3206">
        <g
           id="g3208">
          <g
             clip-path="url(#clipPath3212)"
             id="g3210">
            <path
               id="path3216"
               style="fill:#000000;fill-opacity:1;fill-rule:nonzero;stroke:none"
               d="m 180,180 574.082,0 0,446.117 -574.082,0 L 180,180 z"
               inkscape:connector-curvature="0" />
            <path
               id="path3218"
               style="fill:#ffffff;fill-opacity:1;fill-rule:nonzero;stroke:none"
               d="m 432.813,422.758 17.0078,0 0,6.37891 -17.0078,0 0,-6.37891 z"
               inkscape:connector-curvature="0" />
            <path
               id="path3220"
               style="fill:#ffffff;fill-opacity:1;fill-rule:nonzero;stroke:none"
               d="m 432.813,411.703 17.0078,0 0,6.37891 -17.0078,0 0,-6.37891 z"
               inkscape:connector-curvature="0" />
            <path
               id="path3222"
               style="fill:#ffffff;fill-opacity:1;fill-rule:nonzero;stroke:none"
               d="m 432.813,400.648 17.0078,0 0,6.37891 -17.0078,0 0,-6.37891 z"
               inkscape:connector-curvature="0" />
            <path
               id="path3224"
               style="fill:#ffffff;fill-opacity:1;fill-rule:nonzero;stroke:none"
               d="m 432.813,389.594 17.0078,0 0,6.37891 -17.0078,0 0,-6.37891 z"
               inkscape:connector-curvature="0" />
            <path
               id="path3226"
               style="fill:#ffffff;fill-opacity:1;fill-rule:nonzero;stroke:none"
               d="m 432.813,378.539 17.0078,0 0,6.37891 -17.0078,0 0,-6.37891 z"
               inkscape:connector-curvature="0" />
            <path
               id="path3228"
               style="fill:#ffffff;fill-opacity:1;fill-rule:nonzero;stroke:none"
               d="m 483.836,378.539 17.0078,0 0,6.37891 -17.0078,0 0,-6.37891 z"
               inkscape:connector-curvature="0" />
            <path
               id="path3230"
               style="fill:#ffffff;fill-opacity:1;fill-rule:nonzero;stroke:none"
               d="m 483.836,389.594 17.0078,0 0,6.37891 -17.0078,0 0,-6.37891 z"
               inkscape:connector-curvature="0" />
            <path
               id="path3232"
               style="fill:#ffffff;fill-opacity:1;fill-rule:nonzero;stroke:none"
               d="m 483.836,400.648 17.0078,0 0,6.37891 -17.0078,0 0,-6.37891 z"
               inkscape:connector-curvature="0" />
            <path
               id="path3234"
               style="fill:#ffffff;fill-opacity:1;fill-rule:nonzero;stroke:none"
               d="m 483.836,411.703 17.0078,0 0,6.37891 -17.0078,0 0,-6.37891 z"
               inkscape:connector-curvature="0" />
            <path
               id="path3236"
               style="fill:#ffffff;fill-opacity:1;fill-rule:nonzero;stroke:none"
               d="m 483.836,422.758 17.0078,0 0,6.37891 -17.0078,0 0,-6.37891 z"
               inkscape:connector-curvature="0" />
            <path
               id="path3238"
               style="fill:#ffffff;fill-opacity:1;fill-rule:nonzero;stroke:none"
               d="m 313.68,259.199 c 0,14.711 -11.93,26.641 -26.641,26.641 -14.711,0 -26.641,-11.93 -26.641,-26.641 0,-14.711 11.93,-26.64 26.641,-26.64 14.711,0 26.641,11.929 26.641,26.64"
               inkscape:connector-curvature="0" />
            <path
               id="path3240"
               style="fill:#ffffff;fill-opacity:1;fill-rule:nonzero;stroke:none"
               d="m 313.68,331.199 c 0,14.711 -11.93,26.641 -26.641,26.641 -14.711,0 -26.641,-11.93 -26.641,-26.641 0,-14.711 11.93,-26.64 26.641,-26.64 14.711,0 26.641,11.929 26.641,26.64"
               inkscape:connector-curvature="0" />
            <path
               id="path3242"
               style="fill:#ffffff;fill-opacity:1;fill-rule:nonzero;stroke:none"
               d="m 313.68,403.199 c 0,14.711 -11.93,26.641 -26.641,26.641 -14.711,0 -26.641,-11.93 -26.641,-26.641 0,-14.711 11.93,-26.64 26.641,-26.64 14.711,0 26.641,11.929 26.641,26.64"
               inkscape:connector-curvature="0" />
            <path
               id="path3244"
               style="fill:#ffffff;fill-opacity:1;fill-rule:nonzero;stroke:none"
               d="m 313.68,475.199 c 0,14.711 -11.93,26.641 -26.641,26.641 -14.711,0 -26.641,-11.93 -26.641,-26.641 0,-14.711 11.93,-26.64 26.641,-26.64 14.711,0 26.641,11.929 26.641,26.64"
               inkscape:connector-curvature="0" />
            <path
               id="path3246"
               style="fill:#ffffff;fill-opacity:1;fill-rule:nonzero;stroke:none"
               d="m 313.68,547.199 c 0,14.711 -11.93,26.641 -26.641,26.641 -14.711,0 -26.641,-11.93 -26.641,-26.641 0,-14.711 11.93,-26.64 26.641,-26.64 14.711,0 26.641,11.929 26.641,26.64"
               inkscape:connector-curvature="0" />
            <path
               id="path3248"
               style="fill:#ffffff;fill-opacity:1;fill-rule:nonzero;stroke:none"
               d="m 279.84,540 14.3984,0 0,14.3984 -14.3984,0 0,-14.3984 z"
               inkscape:connector-curvature="0" />
            <path
               id="path3250"
               style="fill:#ffffff;fill-opacity:1;fill-rule:nonzero;stroke:none"
               d="m 279.84,468 14.3984,0 0,14.3984 -14.3984,0 0,-14.3984 z"
               inkscape:connector-curvature="0" />
            <path
               id="path3252"
               style="fill:#ffffff;fill-opacity:1;fill-rule:nonzero;stroke:none"
               d="m 279.84,396 14.3984,0 0,14.3984 -14.3984,0 0,-14.3984 z"
               inkscape:connector-curvature="0" />
            <path
               id="path3254"
               style="fill:#ffffff;fill-opacity:1;fill-rule:nonzero;stroke:none"
               d="m 279.84,324 14.3984,0 0,14.3984 -14.3984,0 0,-14.3984 z"
               inkscape:connector-curvature="0" />
            <path
               id="path3256"
               style="fill:#ffffff;fill-opacity:1;fill-rule:nonzero;stroke:none"
               d="m 279.84,252 14.3984,0 0,14.3984 -14.3984,0 0,-14.3984 z"
               inkscape:connector-curvature="0" />
            <path
               id="path3258"
               style="fill:#ffffff;fill-opacity:1;fill-rule:nonzero;stroke:none"
               d="m 673.68,547.199 c 0,14.711 -11.93,26.641 -26.641,26.641 -14.711,0 -26.641,-11.93 -26.641,-26.641 0,-14.711 11.93,-26.64 26.641,-26.64 14.711,0 26.641,11.929 26.641,26.64"
               inkscape:connector-curvature="0" />
            <path
               id="path3260"
               style="fill:#ffffff;fill-opacity:1;fill-rule:nonzero;stroke:none"
               d="m 673.68,475.199 c 0,14.711 -11.93,26.641 -26.641,26.641 -14.711,0 -26.641,-11.93 -26.641,-26.641 0,-14.711 11.93,-26.64 26.641,-26.64 14.711,0 26.641,11.929 26.641,26.64"
               inkscape:connector-curvature="0" />
            <path
               id="path3262"
               style="fill:#ffffff;fill-opacity:1;fill-rule:nonzero;stroke:none"
               d="m 673.68,403.199 c 0,14.711 -11.93,26.641 -26.641,26.641 -14.711,0 -26.641,-11.93 -26.641,-26.641 0,-14.711 11.93,-26.64 26.641,-26.64 14.711,0 26.641,11.929 26.641,26.64"
               inkscape:connector-curvature="0" />
            <path
               id="path3264"
               style="fill:#ffffff;fill-opacity:1;fill-rule:nonzero;stroke:none"
               d="m 673.68,331.199 c 0,14.711 -11.93,26.641 -26.641,26.641 -14.711,0 -26.641,-11.93 -26.641,-26.641 0,-14.711 11.93,-26.64 26.641,-26.64 14.711,0 26.641,11.929 26.641,26.64"
               inkscape:connector-curvature="0" />
            <path
               id="path3266"
               style="fill:#ffffff;fill-opacity:1;fill-rule:nonzero;stroke:none"
               d="m 673.68,259.199 c 0,14.711 -11.93,26.641 -26.641,26.641 -14.711,0 -26.641,-11.93 -26.641,-26.641 0,-14.711 11.93,-26.64 26.641,-26.64 14.711,0 26.641,11.929 26.641,26.64"
               inkscape:connector-curvature="0" />
            <path
               id="path3268"
               style="fill:#ffffff;fill-opacity:1;fill-rule:nonzero;stroke:none"
               d="m 639.84,252 14.3984,0 0,14.3984 -14.3984,0 0,-14.3984 z"
               inkscape:connector-curvature="0" />
            <path
               id="path3270"
               style="fill:#ffffff;fill-opacity:1;fill-rule:nonzero;stroke:none"
               d="m 639.84,324 14.3984,0 0,14.3984 -14.3984,0 0,-14.3984 z"
               inkscape:connector-curvature="0" />
            <path
               id="path3272"
               style="fill:#ffffff;fill-opacity:1;fill-rule:nonzero;stroke:none"
               d="m 639.84,396 14.3984,0 0,14.3984 -14.3984,0 0,-14.3984 z"
               inkscape:connector-curvature="0" />
            <path
               id="path3274"
               style="fill:#ffffff;fill-opacity:1;fill-rule:nonzero;stroke:none"
               d="m 639.84,468 14.3984,0 0,14.3984 -14.3984,0 0,-14.3984 z"
               inkscape:connector-curvature="0" />
            <path
               id="path3276"
               style="fill:#ffffff;fill-opacity:1;fill-rule:nonzero;stroke:none"
               d="m 639.84,540 14.3984,0 0,14.3984 -14.3984,0 0,-14.3984 z"
               inkscape:connector-curvature="0" />
            <path
               id="path3278"
               style="fill:none;stroke:#ffffff;stroke-width:8.64000034;stroke-linecap:round;stroke-linejoin:round;stroke-miterlimit:10;stroke-opacity:1;stroke-dasharray:none"
               d="m 441.316,425.949 -6.027,0"
               inkscape:connector-curvature="0" />
            <path
               id="path3280"
               style="fill:none;stroke:#ffffff;stroke-width:8.64000034;stroke-linecap:round;stroke-linejoin:round;stroke-miterlimit:10;stroke-opacity:1;stroke-dasharray:none"
               d="m 435.289,425.949 -121.25,121.25"
               inkscape:connector-curvature="0" />
            <path
               id="path3282"
               style="fill:none;stroke:#ffffff;stroke-width:8.64000034;stroke-linecap:round;stroke-linejoin:round;stroke-miterlimit:10;stroke-opacity:1;stroke-dasharray:none"
               d="m 314.039,547.199 -27,0"
               inkscape:connector-curvature="0" />
            <path
               id="path3284"
               style="fill:none;stroke:#ffffff;stroke-width:8.64000034;stroke-linecap:round;stroke-linejoin:round;stroke-miterlimit:10;stroke-opacity:1;stroke-dasharray:none"
               d="m 441.316,381.727 -4.75,0"
               inkscape:connector-curvature="0" />
            <path
               id="path3286"
               style="fill:none;stroke:#ffffff;stroke-width:8.64000034;stroke-linecap:round;stroke-linejoin:round;stroke-miterlimit:10;stroke-opacity:1;stroke-dasharray:none"
               d="M 436.566,381.727 314.039,259.199"
               inkscape:connector-curvature="0" />
            <path
               id="path3288"
               style="fill:none;stroke:#ffffff;stroke-width:8.64000034;stroke-linecap:round;stroke-linejoin:round;stroke-miterlimit:10;stroke-opacity:1;stroke-dasharray:none"
               d="m 314.039,259.199 -27,0"
               inkscape:connector-curvature="0" />
            <path
               id="path3290"
               style="fill:none;stroke:#ffffff;stroke-width:8.64000034;stroke-linecap:round;stroke-linejoin:round;stroke-miterlimit:10;stroke-opacity:1;stroke-dasharray:none"
               d="m 492.34,425.949 6.445,0"
               inkscape:connector-curvature="0" />
            <path
               id="path3292"
               style="fill:none;stroke:#ffffff;stroke-width:8.64000034;stroke-linecap:round;stroke-linejoin:round;stroke-miterlimit:10;stroke-opacity:1;stroke-dasharray:none"
               d="m 498.785,425.949 121.254,121.25"
               inkscape:connector-curvature="0" />
            <path
               id="path3294"
               style="fill:none;stroke:#ffffff;stroke-width:8.64000034;stroke-linecap:round;stroke-linejoin:round;stroke-miterlimit:10;stroke-opacity:1;stroke-dasharray:none"
               d="m 620.039,547.199 27,0"
               inkscape:connector-curvature="0" />
            <path
               id="path3296"
               style="fill:none;stroke:#ffffff;stroke-width:8.64000034;stroke-linecap:round;stroke-linejoin:round;stroke-miterlimit:10;stroke-opacity:1;stroke-dasharray:none"
               d="m 492.34,392.781 30.117,0"
               inkscape:connector-curvature="0" />
            <path
               id="path3298"
               style="fill:none;stroke:#ffffff;stroke-width:8.64000034;stroke-linecap:round;stroke-linejoin:round;stroke-miterlimit:10;stroke-opacity:1;stroke-dasharray:none"
               d="m 522.457,392.781 61.582,-61.582"
               inkscape:connector-curvature="0" />
            <path
               id="path3300"
               style="fill:none;stroke:#ffffff;stroke-width:8.64000034;stroke-linecap:round;stroke-linejoin:round;stroke-miterlimit:10;stroke-opacity:1;stroke-dasharray:none"
               d="m 584.039,331.199 63,0"
               inkscape:connector-curvature="0" />
            <path
               id="path3302"
               style="fill:none;stroke:#ffffff;stroke-width:8.64000034;stroke-linecap:round;stroke-linejoin:round;stroke-miterlimit:10;stroke-opacity:1;stroke-dasharray:none"
               d="m 441.316,414.895 -30.968,0"
               inkscape:connector-curvature="0" />
            <path
               id="path3304"
               style="fill:none;stroke:#ffffff;stroke-width:8.64000034;stroke-linecap:round;stroke-linejoin:round;stroke-miterlimit:10;stroke-opacity:1;stroke-dasharray:none"
               d="m 410.348,414.895 -60.309,60.304"
               inkscape:connector-curvature="0" />
            <path
               id="path3306"
               style="fill:none;stroke:#ffffff;stroke-width:8.64000034;stroke-linecap:round;stroke-linejoin:round;stroke-miterlimit:10;stroke-opacity:1;stroke-dasharray:none"
               d="m 350.039,475.199 -63,0"
               inkscape:connector-curvature="0" />
            <path
               id="path3308"
               style="fill:none;stroke:#ffffff;stroke-width:8.64000034;stroke-linecap:round;stroke-linejoin:round;stroke-miterlimit:10;stroke-opacity:1;stroke-dasharray:none"
               d="m 441.316,403.836 -153.64,0"
               inkscape:connector-curvature="0" />
            <path
               id="path3310"
               style="fill:none;stroke:#ffffff;stroke-width:8.64000034;stroke-linecap:round;stroke-linejoin:round;stroke-miterlimit:10;stroke-opacity:1;stroke-dasharray:none"
               d="m 287.676,403.836 -0.637,-0.637"
               inkscape:connector-curvature="0" />
            <path
               id="path3312"
               style="fill:none;stroke:#ffffff;stroke-width:8.64000034;stroke-linecap:round;stroke-linejoin:round;stroke-miterlimit:10;stroke-opacity:1;stroke-dasharray:none"
               d="m 441.316,392.781 -29.695,0"
               inkscape:connector-curvature="0" />
            <path
               id="path3314"
               style="fill:none;stroke:#ffffff;stroke-width:8.64000034;stroke-linecap:round;stroke-linejoin:round;stroke-miterlimit:10;stroke-opacity:1;stroke-dasharray:none"
               d="M 411.621,392.781 350.039,331.199"
               inkscape:connector-curvature="0" />
            <path
               id="path3316"
               style="fill:none;stroke:#ffffff;stroke-width:8.64000034;stroke-linecap:round;stroke-linejoin:round;stroke-miterlimit:10;stroke-opacity:1;stroke-dasharray:none"
               d="m 350.039,331.199 -63,0"
               inkscape:connector-curvature="0" />
            <path
               id="path3318"
               style="fill:none;stroke:#ffffff;stroke-width:8.64000034;stroke-linecap:round;stroke-linejoin:round;stroke-miterlimit:10;stroke-opacity:1;stroke-dasharray:none"
               d="m 492.34,381.727 5.172,0"
               inkscape:connector-curvature="0" />
            <path
               id="path3320"
               style="fill:none;stroke:#ffffff;stroke-width:8.64000034;stroke-linecap:round;stroke-linejoin:round;stroke-miterlimit:10;stroke-opacity:1;stroke-dasharray:none"
               d="M 497.512,381.727 620.039,259.199"
               inkscape:connector-curvature="0" />
            <path
               id="path3322"
               style="fill:none;stroke:#ffffff;stroke-width:8.64000034;stroke-linecap:round;stroke-linejoin:round;stroke-miterlimit:10;stroke-opacity:1;stroke-dasharray:none"
               d="m 620.039,259.199 27,0"
               inkscape:connector-curvature="0" />
            <path
               id="path3324"
               style="fill:none;stroke:#ffffff;stroke-width:8.64000034;stroke-linecap:round;stroke-linejoin:round;stroke-miterlimit:10;stroke-opacity:1;stroke-dasharray:none"
               d="m 492.34,403.836 154.062,0"
               inkscape:connector-curvature="0" />
            <path
               id="path3326"
               style="fill:none;stroke:#ffffff;stroke-width:8.64000034;stroke-linecap:round;stroke-linejoin:round;stroke-miterlimit:10;stroke-opacity:1;stroke-dasharray:none"
               d="m 646.402,403.836 0.637,-0.637"
               inkscape:connector-curvature="0" />
            <path
               id="path3328"
               style="fill:none;stroke:#ffffff;stroke-width:8.64000034;stroke-linecap:round;stroke-linejoin:round;stroke-miterlimit:10;stroke-opacity:1;stroke-dasharray:none"
               d="m 492.34,414.895 31.39,0"
               inkscape:connector-curvature="0" />
            <path
               id="path3330"
               style="fill:none;stroke:#ffffff;stroke-width:8.64000034;stroke-linecap:round;stroke-linejoin:round;stroke-miterlimit:10;stroke-opacity:1;stroke-dasharray:none"
               d="m 523.73,414.895 60.309,60.304"
               inkscape:connector-curvature="0" />
            <path
               id="path3332"
               style="fill:none;stroke:#ffffff;stroke-width:8.64000034;stroke-linecap:round;stroke-linejoin:round;stroke-miterlimit:10;stroke-opacity:1;stroke-dasharray:none"
               d="m 584.039,475.199 63,0"
               inkscape:connector-curvature="0" />
          </g>
        </g>
      </g>
    </g>
  </g>
</svg>
