<?xml version="1.0" encoding="UTF-8" standalone="no"?>
<!-- Created with Inkscape (http://www.inkscape.org/) -->

<svg
   xmlns:dc="http://purl.org/dc/elements/1.1/"
   xmlns:cc="http://creativecommons.org/ns#"
   xmlns:rdf="http://www.w3.org/1999/02/22-rdf-syntax-ns#"
   xmlns:svg="http://www.w3.org/2000/svg"
   xmlns="http://www.w3.org/2000/svg"
   xmlns:sodipodi="http://sodipodi.sourceforge.net/DTD/sodipodi-0.dtd"
   xmlns:inkscape="http://www.inkscape.org/namespaces/inkscape"
   width="744.09448819"
   height="1052.3622047"
   id="svg2"
   version="1.1"
   inkscape:version="0.48.5 r10040"
   sodipodi:docname="touch_slider.svg">
  <defs
     id="defs4" />
  <sodipodi:namedview
     id="base"
     pagecolor="#ffffff"
     bordercolor="#666666"
     borderopacity="1.0"
     inkscape:pageopacity="0.0"
     inkscape:pageshadow="2"
     inkscape:zoom="2.8"
     inkscape:cx="176.9511"
     inkscape:cy="755.89128"
     inkscape:document-units="px"
     inkscape:current-layer="layer1"
     showgrid="false"
     inkscape:window-width="1920"
     inkscape:window-height="1017"
     inkscape:window-x="-8"
     inkscape:window-y="-8"
     inkscape:window-maximized="1" />
  <metadata
     id="metadata7">
    <rdf:RDF>
      <cc:Work
         rdf:about="">
        <dc:format>image/svg+xml</dc:format>
        <dc:type
           rdf:resource="http://purl.org/dc/dcmitype/StillImage" />
        <dc:title />
      </cc:Work>
    </rdf:RDF>
  </metadata>
  <g
     inkscape:label="Layer 1"
     inkscape:groupmode="layer"
     id="layer1">
    <path
       style="fill:none;stroke:#000000;stroke-width:1.46553755;stroke-miterlimit:4;stroke-dasharray:none"
       d="m 132.27418,212.84223 0,-1.60806 -16.11286,0 0,1.60806 0,1.20604 c -7.63561,0 -37.834366,0 -37.834366,0 l 22.906806,40.47977 22.9068,40.47978 22.90681,-40.47978 22.9068,-40.47977 -22.9068,0 -14.77319,0 z"
       id="path2985"
       inkscape:connector-curvature="0"
       sodipodi:nodetypes="ccccccccccccc" />
    <path
       style="fill:none;stroke:#000000;stroke-width:1.46553755;stroke-miterlimit:4;stroke-dasharray:none"
       d="m 231.05273,213.07136 0,-1.60806 -16.11286,0 0,1.60806 0,1.20604 c -7.63561,0 -37.83437,0 -37.83437,0 l 22.90681,40.47977 22.9068,40.47977 22.9068,-40.47977 22.90681,-40.47977 -22.90681,0 -14.77318,0 z"
       id="path2985-74"
       inkscape:connector-curvature="0"
       sodipodi:nodetypes="ccccccccccccc" />
    <path
       style="fill:none;stroke:#000000;stroke-width:1.46553755;stroke-miterlimit:4;stroke-dasharray:none"
       d="m 329.83128,213.13217 0,-1.60805 -16.11286,0 0,1.60805 0,1.20605 c -7.6356,0 -37.83436,0 -37.83436,0 l 22.9068,40.47977 22.90681,40.47977 22.9068,-40.47977 22.90681,-40.47977 -22.90681,0 -14.77319,0 z"
       id="path2985-74-0"
       inkscape:connector-curvature="0"
       sodipodi:nodetypes="ccccccccccccc" />
    <path
       style="fill:none;stroke:#000000;stroke-width:1.46553755;stroke-miterlimit:4;stroke-dasharray:none"
       d="m 165.39622,296.24345 0,1.60806 16.11286,0 0,-1.60806 0,-1.20605 c 7.6356,0 37.83436,0 37.83436,0 l -22.9068,-40.47977 -22.9068,-40.47977 -22.90681,40.47977 -22.9068,40.47977 22.9068,0 14.77319,0 z"
       id="path2985-74-9"
       inkscape:connector-curvature="0"
       sodipodi:nodetypes="ccccccccccccc" />
    <path
       style="fill:none;stroke:#000000;stroke-width:1.46553755;stroke-miterlimit:4;stroke-dasharray:none"
       d="m 264.17477,296.74325 0,1.60806 16.11286,0 0,-1.60806 0,-1.20604 c 7.6356,0 37.83436,0 37.83436,0 l -22.9068,-40.47977 -22.90681,-40.47977 -22.9068,40.47977 -22.9068,40.47977 22.9068,0 14.77319,0 z"
       id="path2985-74-4"
       inkscape:connector-curvature="0"
       sodipodi:nodetypes="ccccccccccccc" />
    <path
       id="path2985-74-9-8"
       style="fill:none;stroke:#000000;stroke-width:1.46553755;stroke-miterlimit:4;stroke-dasharray:none"
       d="m 120.49877,295.00496 -45.815817,-80.94168 -10.714219,0.14941 0.627297,80.7546 2.021642,0 0,1.16838 0,1.60806 16.11286,0 0,-1.60806 0,-1.16838 c 7.6356,0 37.834357,-0.0377 37.834357,-0.0377 L 97.658092,254.44985 74.751293,213.97008"
       inkscape:connector-curvature="0"
       sodipodi:nodetypes="ccccccccccccc" />
    <path
       id="path2985-74-9-8-8"
       style="fill:none;stroke:#000000;stroke-width:1.46553755;stroke-miterlimit:4;stroke-dasharray:none"
       d="m 325.33946,294.86738 45.81582,-80.94168 10.71422,0.14941 -0.6273,80.7546 -2.02164,0 0,1.16838 0,1.60806 -16.11286,0 0,-1.60806 0,-1.16838 c -7.6356,0 -37.83436,-0.0377 -37.83436,-0.0377 l 22.9068,-40.47974 22.9068,-40.47977"
       inkscape:connector-curvature="0"
       sodipodi:nodetypes="ccccccccccccc" />
  </g>
</svg>
