<?xml version="1.0" encoding="UTF-8" standalone="no"?>
<!-- Created with Inkscape (http://www.inkscape.org/) -->

<svg
   xmlns:dc="http://purl.org/dc/elements/1.1/"
   xmlns:cc="http://creativecommons.org/ns#"
   xmlns:rdf="http://www.w3.org/1999/02/22-rdf-syntax-ns#"
   xmlns:svg="http://www.w3.org/2000/svg"
   xmlns="http://www.w3.org/2000/svg"
   version="1.1"
   width="765"
   height="990"
   id="svg3719"
   xml:space="preserve"><metadata
     id="metadata3725"><rdf:RDF><cc:Work
         rdf:about=""><dc:format>image/svg+xml</dc:format><dc:type
           rdf:resource="http://purl.org/dc/dcmitype/StillImage" /><dc:title></dc:title></cc:Work></rdf:RDF></metadata><defs
     id="defs3723"><clipPath
       id="clipPath3735"><path
         d="m 180,180 5580,0 0,7740 -5580,0 0,-7740 z"
         id="path3737" /></clipPath></defs><g
     transform="matrix(1.25,0,0,-1.25,0,990)"
     id="g3727"><g
       transform="scale(0.1,0.1)"
       id="g3729"><g
         id="g3731"><g
           clip-path="url(#clipPath3735)"
           id="g3733"><path
             d="m 364,350.418 56.6914,0 0,31.1836 -56.6914,0 0,-31.1836 z"
             id="path3739"
             style="fill:#000000;fill-opacity:1;fill-rule:nonzero;stroke:none" /><path
             d="m 364,302.23 56.6914,0 0,31.1797 -56.6914,0 0,-31.1797 z"
             id="path3741"
             style="fill:#000000;fill-opacity:1;fill-rule:nonzero;stroke:none" /><path
             d="m 364,254.039 56.6914,0 0,31.1836 -56.6914,0 0,-31.1836 z"
             id="path3743"
             style="fill:#000000;fill-opacity:1;fill-rule:nonzero;stroke:none" /><path
             d="m 477.387,254.039 56.6914,0 0,31.1836 -56.6914,0 0,-31.1836 z"
             id="path3745"
             style="fill:#000000;fill-opacity:1;fill-rule:nonzero;stroke:none" /><path
             d="m 477.387,302.23 56.6914,0 0,31.1797 -56.6914,0 0,-31.1797 z"
             id="path3747"
             style="fill:#000000;fill-opacity:1;fill-rule:nonzero;stroke:none" /><path
             d="m 477.387,350.418 56.6914,0 0,31.1836 -56.6914,0 0,-31.1836 z"
             id="path3749"
             style="fill:#000000;fill-opacity:1;fill-rule:nonzero;stroke:none" /><path
             d="m 308.641,245.82 -43.203,0"
             id="path3751"
             style="fill:none;stroke:#000000;stroke-width:43.20000076;stroke-linecap:round;stroke-linejoin:round;stroke-miterlimit:10;stroke-opacity:1;stroke-dasharray:none" /><path
             d="m 308.641,317.82 -43.203,0"
             id="path3753"
             style="fill:none;stroke:#000000;stroke-width:43.20000076;stroke-linecap:round;stroke-linejoin:round;stroke-miterlimit:10;stroke-opacity:1;stroke-dasharray:none" /><path
             d="m 308.641,389.82 -43.203,0"
             id="path3755"
             style="fill:none;stroke:#000000;stroke-width:43.20000076;stroke-linecap:round;stroke-linejoin:round;stroke-miterlimit:10;stroke-opacity:1;stroke-dasharray:none" /><path
             d="m 279.84,310.621 14.3984,0 0,14.3984 -14.3984,0 0,-14.3984 z"
             id="path3757"
             style="fill:#000000;fill-opacity:1;fill-rule:nonzero;stroke:none" /><path
             d="m 279.84,238.621 14.3984,0 0,14.3984 -14.3984,0 0,-14.3984 z"
             id="path3759"
             style="fill:#000000;fill-opacity:1;fill-rule:nonzero;stroke:none" /><path
             d="m 279.84,382.621 14.3984,0 0,14.3984 -14.3984,0 0,-14.3984 z"
             id="path3761"
             style="fill:#000000;fill-opacity:1;fill-rule:nonzero;stroke:none" /><path
             d="m 632.641,245.82 -43.203,0"
             id="path3763"
             style="fill:none;stroke:#000000;stroke-width:43.20000076;stroke-linecap:round;stroke-linejoin:round;stroke-miterlimit:10;stroke-opacity:1;stroke-dasharray:none" /><path
             d="m 632.641,317.82 -43.203,0"
             id="path3765"
             style="fill:none;stroke:#000000;stroke-width:43.20000076;stroke-linecap:round;stroke-linejoin:round;stroke-miterlimit:10;stroke-opacity:1;stroke-dasharray:none" /><path
             d="m 632.641,389.82 -43.203,0"
             id="path3767"
             style="fill:none;stroke:#000000;stroke-width:43.20000076;stroke-linecap:round;stroke-linejoin:round;stroke-miterlimit:10;stroke-opacity:1;stroke-dasharray:none" /><path
             d="m 603.84,310.621 14.3984,0 0,14.3984 -14.3984,0 0,-14.3984 z"
             id="path3769"
             style="fill:#000000;fill-opacity:1;fill-rule:nonzero;stroke:none" /><path
             d="m 603.84,238.621 14.3984,0 0,14.3984 -14.3984,0 0,-14.3984 z"
             id="path3771"
             style="fill:#000000;fill-opacity:1;fill-rule:nonzero;stroke:none" /><path
             d="m 603.84,382.621 14.3984,0 0,14.3984 -14.3984,0 0,-14.3984 z"
             id="path3773"
             style="fill:#000000;fill-opacity:1;fill-rule:nonzero;stroke:none" /><path
             d="m 611.039,245.82 -36,0"
             id="path3775"
             style="fill:none;stroke:#000000;stroke-width:11.52000046;stroke-linecap:round;stroke-linejoin:round;stroke-miterlimit:10;stroke-opacity:1;stroke-dasharray:none" /><path
             d="m 575.039,245.82 -18,18"
             id="path3777"
             style="fill:none;stroke:#000000;stroke-width:11.52000046;stroke-linecap:round;stroke-linejoin:round;stroke-miterlimit:10;stroke-opacity:1;stroke-dasharray:none" /><path
             d="m 557.039,263.82 -36,0"
             id="path3779"
             style="fill:none;stroke:#000000;stroke-width:11.52000046;stroke-linecap:round;stroke-linejoin:round;stroke-miterlimit:10;stroke-opacity:1;stroke-dasharray:none" /><path
             d="m 287.039,389.82 36,0"
             id="path3781"
             style="fill:none;stroke:#000000;stroke-width:11.52000046;stroke-linecap:round;stroke-linejoin:round;stroke-miterlimit:10;stroke-opacity:1;stroke-dasharray:none" /><path
             d="m 323.039,389.82 18,-18"
             id="path3783"
             style="fill:none;stroke:#000000;stroke-width:11.52000046;stroke-linecap:round;stroke-linejoin:round;stroke-miterlimit:10;stroke-opacity:1;stroke-dasharray:none" /><path
             d="m 341.039,371.82 54,0"
             id="path3785"
             style="fill:none;stroke:#000000;stroke-width:11.52000046;stroke-linecap:round;stroke-linejoin:round;stroke-miterlimit:10;stroke-opacity:1;stroke-dasharray:none" /><path
             d="m 287.039,317.82 108,0"
             id="path3787"
             style="fill:none;stroke:#000000;stroke-width:11.52000046;stroke-linecap:round;stroke-linejoin:round;stroke-miterlimit:10;stroke-opacity:1;stroke-dasharray:none" /><path
             d="m 287.039,245.82 36,0"
             id="path3789"
             style="fill:none;stroke:#000000;stroke-width:11.52000046;stroke-linecap:round;stroke-linejoin:round;stroke-miterlimit:10;stroke-opacity:1;stroke-dasharray:none" /><path
             d="m 323.039,245.82 18,18"
             id="path3791"
             style="fill:none;stroke:#000000;stroke-width:11.52000046;stroke-linecap:round;stroke-linejoin:round;stroke-miterlimit:10;stroke-opacity:1;stroke-dasharray:none" /><path
             d="m 341.039,263.82 54,0"
             id="path3793"
             style="fill:none;stroke:#000000;stroke-width:11.52000046;stroke-linecap:round;stroke-linejoin:round;stroke-miterlimit:10;stroke-opacity:1;stroke-dasharray:none" /><path
             d="m 611.039,317.82 -90,0"
             id="path3795"
             style="fill:none;stroke:#000000;stroke-width:11.52000046;stroke-linecap:round;stroke-linejoin:round;stroke-miterlimit:10;stroke-opacity:1;stroke-dasharray:none" /><path
             d="m 611.039,389.82 -36,0"
             id="path3797"
             style="fill:none;stroke:#000000;stroke-width:11.52000046;stroke-linecap:round;stroke-linejoin:round;stroke-miterlimit:10;stroke-opacity:1;stroke-dasharray:none" /><path
             d="m 575.039,389.82 -18,-18"
             id="path3799"
             style="fill:none;stroke:#000000;stroke-width:11.52000046;stroke-linecap:round;stroke-linejoin:round;stroke-miterlimit:10;stroke-opacity:1;stroke-dasharray:none" /><path
             d="m 557.039,371.82 -36,0"
             id="path3801"
             style="fill:none;stroke:#000000;stroke-width:11.52000046;stroke-linecap:round;stroke-linejoin:round;stroke-miterlimit:10;stroke-opacity:1;stroke-dasharray:none" /></g></g></g></g></svg>