%
M48
M72
T01C0.0236
T02C0.0400
T03C0.0472
%
T01
X15512Y14685
X16299Y14685
X16811Y14685
X13858Y15827
X15039Y15866
X15945Y16220
X20118Y15079
X21063Y14567
X21535Y14843
X20669Y14055
X20079Y12677
X21260Y12402
X24252Y11614
T02
X16661Y12008
X15661Y12008
X14661Y12008
X13661Y12008
X14213Y13228
X15213Y13228
X16213Y13228
T03
X13644Y10858
X14644Y10858
X15644Y10858
X16644Y10858
X17644Y10858
X18644Y10858
X19644Y10858
X20644Y10858
X21628Y10862
X22644Y10858
X23644Y10858
X24644Y10858
X25644Y10858
X26644Y10858
X26644Y16858
X25644Y16858
X24644Y16858
X23644Y16858
X22644Y16858
X21644Y16858
X20644Y16858
X19644Y16858
X18644Y16858
X17644Y16858
X16644Y16858
X15644Y16858
X14644Y16858
X13644Y16858
M30
