<?xml version="1.0" encoding="UTF-8" standalone="no"?>
<!-- Created with Inkscape (http://www.inkscape.org/) -->

<svg
   xmlns:dc="http://purl.org/dc/elements/1.1/"
   xmlns:cc="http://creativecommons.org/ns#"
   xmlns:rdf="http://www.w3.org/1999/02/22-rdf-syntax-ns#"
   xmlns:svg="http://www.w3.org/2000/svg"
   xmlns="http://www.w3.org/2000/svg"
   xmlns:sodipodi="http://sodipodi.sourceforge.net/DTD/sodipodi-0.dtd"
   xmlns:inkscape="http://www.inkscape.org/namespaces/inkscape"
   id="svg7929"
   version="1.1"
   inkscape:version="0.48.5 r10040"
   width="765"
   height="990"
   xml:space="preserve"
   sodipodi:docname="cream.ps"><metadata
     id="metadata7935"><rdf:RDF><cc:Work
         rdf:about=""><dc:format>image/svg+xml</dc:format><dc:type
           rdf:resource="http://purl.org/dc/dcmitype/StillImage" /><dc:title></dc:title></cc:Work></rdf:RDF></metadata><defs
     id="defs7933"><clipPath
       clipPathUnits="userSpaceOnUse"
       id="clipPath7945"><path
         d="m 180,180 5580,0 0,7740 -5580,0 0,-7740 z"
         id="path7947" /></clipPath></defs><sodipodi:namedview
     pagecolor="#ffffff"
     bordercolor="#666666"
     borderopacity="1"
     objecttolerance="10"
     gridtolerance="10"
     guidetolerance="10"
     inkscape:pageopacity="0"
     inkscape:pageshadow="2"
     inkscape:window-width="1920"
     inkscape:window-height="1017"
     id="namedview7931"
     showgrid="false"
     inkscape:zoom="5.3940105"
     inkscape:cx="212.48492"
     inkscape:cy="94.431591"
     inkscape:window-x="-8"
     inkscape:window-y="-8"
     inkscape:window-maximized="1"
     inkscape:current-layer="g7939" /><g
     id="g7937"
     inkscape:groupmode="layer"
     inkscape:label="ink_ext_XXXXXX"
     transform="matrix(1.25,0,0,-1.25,0,990)"><g
       id="g7939"
       transform="scale(0.1,0.1)"><g
         id="g7941"><g
           id="g7943"
           clip-path="url(#clipPath7945)"><path
             d="m 704.406,253.906 56.6914,0 0,31.1797 -56.6914,0 0,-31.1797 z"
             style="fill:#000000;fill-opacity:1;fill-rule:nonzero;stroke:none"
             id="path7997" /><path
             d="m 704.406,302.094 56.6914,0 0,31.1797 -56.6914,0 0,-31.1797 z"
             style="fill:#000000;fill-opacity:1;fill-rule:nonzero;stroke:none"
             id="path7999" /><path
             d="m 704.406,350.281 56.6914,0 0,31.1836 -56.6914,0 0,-31.1836 z"
             style="fill:#000000;fill-opacity:1;fill-rule:nonzero;stroke:none"
             id="path8001" /><path
             d="m 591.02,350.281 56.6953,0 0,31.1836 -56.6953,0 0,-31.1836 z"
             style="fill:#000000;fill-opacity:1;fill-rule:nonzero;stroke:none"
             id="path8003" /><path
             d="m 591.02,302.094 56.6953,0 0,31.1797 -56.6953,0 0,-31.1797 z"
             style="fill:#000000;fill-opacity:1;fill-rule:nonzero;stroke:none"
             id="path8005" /><path
             d="m 591.02,253.906 56.6953,0 0,31.1797 -56.6953,0 0,-31.1797 z"
             style="fill:#000000;fill-opacity:1;fill-rule:nonzero;stroke:none"
             id="path8007" /><path
             d="m 789.445,290.754 36.8516,0 0,42.5195 -36.8516,0 0,-42.5195 z"
             style="fill:#000000;fill-opacity:1;fill-rule:nonzero;stroke:none"
             id="path8009" /><path
             d="m 837.637,290.754 36.8477,0 0,42.5195 -36.8477,0 0,-42.5195 z"
             style="fill:#000000;fill-opacity:1;fill-rule:nonzero;stroke:none"
             id="path8011" /><path
             d="m 786.613,228.395 36.8477,0 0,42.5195 -36.8477,0 0,-42.5195 z"
             style="fill:#000000;fill-opacity:1;fill-rule:nonzero;stroke:none"
             id="path8013" /><path
             d="m 834.801,228.395 36.8516,0 0,42.5195 -36.8516,0 0,-42.5195 z"
             style="fill:#000000;fill-opacity:1;fill-rule:nonzero;stroke:none"
             id="path8015" /><path
             d="m 789.445,353.117 36.8516,0 0,42.5195 -36.8516,0 0,-42.5195 z"
             style="fill:#000000;fill-opacity:1;fill-rule:nonzero;stroke:none"
             id="path8017" /><path
             d="m 837.637,353.117 36.8477,0 0,42.5195 -36.8477,0 0,-42.5195 z"
             style="fill:#000000;fill-opacity:1;fill-rule:nonzero;stroke:none"
             id="path8019" /><path
             d="m 866.266,560.188 36,0 0,108 -36,0 0,-108 z"
             style="fill:#000000;fill-opacity:1;fill-rule:nonzero;stroke:none"
             id="path8021" /><path
             d="m 830.266,704.188 36,0 0,108 -36,0 0,-108 z"
             style="fill:#000000;fill-opacity:1;fill-rule:nonzero;stroke:none"
             id="path8023" /><path
             d="m 794.266,560.188 36,0 0,108 -36,0 0,-108 z"
             style="fill:#000000;fill-opacity:1;fill-rule:nonzero;stroke:none"
             id="path8025" /><path
             d="m 758.266,704.188 36,0 0,108 -36,0 0,-108 z"
             style="fill:#000000;fill-opacity:1;fill-rule:nonzero;stroke:none"
             id="path8027" /><path
             d="m 722.266,560.188 36,0 0,108 -36,0 0,-108 z"
             style="fill:#000000;fill-opacity:1;fill-rule:nonzero;stroke:none"
             id="path8029" /><path
             d="m 686.266,704.188 36,0 0,108 -36,0 0,-108 z"
             style="fill:#000000;fill-opacity:1;fill-rule:nonzero;stroke:none"
             id="path8031" /><path
             d="m 650.266,560.188 36,0 0,108 -36,0 0,-108 z"
             style="fill:#000000;fill-opacity:1;fill-rule:nonzero;stroke:none"
             id="path8033" /><path
             d="m 614.266,704.188 36,0 0,108 -36,0 0,-108 z"
             style="fill:#000000;fill-opacity:1;fill-rule:nonzero;stroke:none"
             id="path8035" /><path
             d="m 1567.91,508.809 17.0078,0 0,6.37891 -17.0078,0 0,-6.37891 z"
             style="fill:#000000;fill-opacity:1;fill-rule:nonzero;stroke:none"
             id="path8037" /><path
             d="m 1567.91,497.754 17.0078,0 0,6.37891 -17.0078,0 0,-6.37891 z"
             style="fill:#000000;fill-opacity:1;fill-rule:nonzero;stroke:none"
             id="path8039" /><path
             d="m 1567.91,486.699 17.0078,0 0,6.37891 -17.0078,0 0,-6.37891 z"
             style="fill:#000000;fill-opacity:1;fill-rule:nonzero;stroke:none"
             id="path8041" /><path
             d="m 1567.91,475.645 17.0078,0 0,6.37891 -17.0078,0 0,-6.37891 z"
             style="fill:#000000;fill-opacity:1;fill-rule:nonzero;stroke:none"
             id="path8043" /><path
             d="m 1567.91,464.59 17.0078,0 0,6.37891 -17.0078,0 0,-6.37891 z"
             style="fill:#000000;fill-opacity:1;fill-rule:nonzero;stroke:none"
             id="path8045" /><path
             d="m 1618.93,464.59 17.0078,0 0,6.37891 -17.0078,0 0,-6.37891 z"
             style="fill:#000000;fill-opacity:1;fill-rule:nonzero;stroke:none"
             id="path8047" /><path
             d="m 1618.93,475.645 17.0078,0 0,6.37891 -17.0078,0 0,-6.37891 z"
             style="fill:#000000;fill-opacity:1;fill-rule:nonzero;stroke:none"
             id="path8049" /><path
             d="m 1618.93,486.699 17.0078,0 0,6.37891 -17.0078,0 0,-6.37891 z"
             style="fill:#000000;fill-opacity:1;fill-rule:nonzero;stroke:none"
             id="path8051" /><path
             d="m 1618.93,497.754 17.0078,0 0,6.37891 -17.0078,0 0,-6.37891 z"
             style="fill:#000000;fill-opacity:1;fill-rule:nonzero;stroke:none"
             id="path8053" /><path
             d="m 1618.93,508.809 17.0078,0 0,6.37891 -17.0078,0 0,-6.37891 z"
             style="fill:#000000;fill-opacity:1;fill-rule:nonzero;stroke:none"
             id="path8055" /><path
             d="m 1737.64,473.59 42.5195,0 0,36.8516 -42.5195,0 0,-36.8516 z"
             style="fill:#000000;fill-opacity:1;fill-rule:nonzero;stroke:none"
             id="path8057" /><path
             d="m 1737.64,527.449 42.5195,0 0,36.8477 -42.5195,0 0,-36.8477 z"
             style="fill:#000000;fill-opacity:1;fill-rule:nonzero;stroke:none"
             id="path8059" /><path
             d="m 1678.11,473.59 42.5195,0 0,36.8516 -42.5195,0 0,-36.8516 z"
             style="fill:#000000;fill-opacity:1;fill-rule:nonzero;stroke:none"
             id="path8061" /><path
             d="m 1678.11,527.449 42.5195,0 0,36.8477 -42.5195,0 0,-36.8477 z"
             style="fill:#000000;fill-opacity:1;fill-rule:nonzero;stroke:none"
             id="path8063" /><path
             d="m 1478.27,458 36.8516,0 0,42.5195 -36.8516,0 0,-42.5195 z"
             style="fill:#000000;fill-opacity:1;fill-rule:nonzero;stroke:none"
             id="path8065" /><path
             d="m 1424.41,458 36.8516,0 0,42.5195 -36.8516,0 0,-42.5195 z"
             style="fill:#000000;fill-opacity:1;fill-rule:nonzero;stroke:none"
             id="path8067" /><path
             d="m 1800,473.59 42.5195,0 0,36.8516 -42.5195,0 0,-36.8516 z"
             style="fill:#000000;fill-opacity:1;fill-rule:nonzero;stroke:none"
             id="path8069" /><path
             d="m 1800,527.449 42.5195,0 0,36.8477 -42.5195,0 0,-36.8477 z"
             style="fill:#000000;fill-opacity:1;fill-rule:nonzero;stroke:none"
             id="path8071" /><path
             d="m 1801.41,803.824 36.8516,0 0,42.5234 -36.8516,0 0,-42.5234 z"
             style="fill:#000000;fill-opacity:1;fill-rule:nonzero;stroke:none"
             id="path8077" /><path
             d="m 1849.6,803.824 36.8516,0 0,42.5234 -36.8516,0 0,-42.5234 z"
             style="fill:#000000;fill-opacity:1;fill-rule:nonzero;stroke:none"
             id="path8079" /></g></g></g></g></svg>