<?xml version="1.0" encoding="UTF-8" standalone="no"?>
<!-- Created with Inkscape (http://www.inkscape.org/) -->

<svg
   xmlns:dc="http://purl.org/dc/elements/1.1/"
   xmlns:cc="http://creativecommons.org/ns#"
   xmlns:rdf="http://www.w3.org/1999/02/22-rdf-syntax-ns#"
   xmlns:svg="http://www.w3.org/2000/svg"
   xmlns="http://www.w3.org/2000/svg"
   xmlns:sodipodi="http://sodipodi.sourceforge.net/DTD/sodipodi-0.dtd"
   xmlns:inkscape="http://www.inkscape.org/namespaces/inkscape"
   id="svg2985"
   version="1.1"
   inkscape:version="0.48.5 r10040"
   width="765"
   height="990"
   xml:space="preserve"
   sodipodi:docname="cream.ps"><metadata
     id="metadata2991"><rdf:RDF><cc:Work
         rdf:about=""><dc:format>image/svg+xml</dc:format><dc:type
           rdf:resource="http://purl.org/dc/dcmitype/StillImage" /><dc:title></dc:title></cc:Work></rdf:RDF></metadata><defs
     id="defs2989"><clipPath
       clipPathUnits="userSpaceOnUse"
       id="clipPath3001"><path
         d="m 180,180 5580,0 0,7740 -5580,0 0,-7740 z"
         id="path3003" /></clipPath></defs><sodipodi:namedview
     pagecolor="#ffffff"
     bordercolor="#666666"
     borderopacity="1"
     objecttolerance="10"
     gridtolerance="10"
     guidetolerance="10"
     inkscape:pageopacity="0"
     inkscape:pageshadow="2"
     inkscape:window-width="1920"
     inkscape:window-height="1017"
     id="namedview2987"
     showgrid="false"
     inkscape:zoom="7.6282828"
     inkscape:cx="153.51248"
     inkscape:cy="63.726307"
     inkscape:window-x="-8"
     inkscape:window-y="-8"
     inkscape:window-maximized="1"
     inkscape:current-layer="g2993" /><g
     id="g2993"
     inkscape:groupmode="layer"
     inkscape:label="ink_ext_XXXXXX"
     transform="matrix(1.25,0,0,-1.25,0,990)"><g
       id="g2995"
       transform="scale(0.1,0.1)"><g
         id="g2997"><g
           id="g2999"
           clip-path="url(#clipPath3001)"><path
             d="m 1183.64,547.27 42.5195,0 0,22.6758 -42.5195,0 0,-22.6758 z"
             style="fill:#000000;fill-opacity:1;fill-rule:nonzero;stroke:none"
             id="path3005" /><path
             d="m 1183.64,513.254 42.5195,0 0,22.6758 -42.5195,0 0,-22.6758 z"
             style="fill:#000000;fill-opacity:1;fill-rule:nonzero;stroke:none"
             id="path3007" /><path
             d="m 1183.64,479.238 42.5195,0 0,22.6758 -42.5195,0 0,-22.6758 z"
             style="fill:#000000;fill-opacity:1;fill-rule:nonzero;stroke:none"
             id="path3009" /><path
             d="m 1183.64,445.223 42.5195,0 0,22.6758 -42.5195,0 0,-22.6758 z"
             style="fill:#000000;fill-opacity:1;fill-rule:nonzero;stroke:none"
             id="path3011" /><path
             d="m 1183.64,411.203 42.5195,0 0,22.6797 -42.5195,0 0,-22.6797 z"
             style="fill:#000000;fill-opacity:1;fill-rule:nonzero;stroke:none"
             id="path3013" /><path
             d="m 1183.64,377.188 42.5195,0 0,22.6797 -42.5195,0 0,-22.6797 z"
             style="fill:#000000;fill-opacity:1;fill-rule:nonzero;stroke:none"
             id="path3015" /><path
             d="m 1257.35,608.211 22.6758,0 0,42.5234 -22.6758,0 0,-42.5234 z"
             style="fill:#000000;fill-opacity:1;fill-rule:nonzero;stroke:none"
             id="path3017" /><path
             d="m 1291.36,608.211 22.6758,0 0,42.5234 -22.6758,0 0,-42.5234 z"
             style="fill:#000000;fill-opacity:1;fill-rule:nonzero;stroke:none"
             id="path3019" /><path
             d="m 1325.38,608.211 22.6758,0 0,42.5234 -22.6758,0 0,-42.5234 z"
             style="fill:#000000;fill-opacity:1;fill-rule:nonzero;stroke:none"
             id="path3021" /><path
             d="m 1359.39,608.211 22.6758,0 0,42.5234 -22.6758,0 0,-42.5234 z"
             style="fill:#000000;fill-opacity:1;fill-rule:nonzero;stroke:none"
             id="path3023" /><path
             d="m 1393.41,608.211 22.6758,0 0,42.5234 -22.6758,0 0,-42.5234 z"
             style="fill:#000000;fill-opacity:1;fill-rule:nonzero;stroke:none"
             id="path3025" /><path
             d="m 1427.43,608.211 22.6758,0 0,42.5234 -22.6758,0 0,-42.5234 z"
             style="fill:#000000;fill-opacity:1;fill-rule:nonzero;stroke:none"
             id="path3027" /><path
             d="m 1461.44,608.211 22.6758,0 0,42.5234 -22.6758,0 0,-42.5234 z"
             style="fill:#000000;fill-opacity:1;fill-rule:nonzero;stroke:none"
             id="path3029" /><path
             d="m 1495.46,608.211 22.6758,0 0,42.5234 -22.6758,0 0,-42.5234 z"
             style="fill:#000000;fill-opacity:1;fill-rule:nonzero;stroke:none"
             id="path3031" /><path
             d="m 1257.35,296.402 22.6758,0 0,42.5195 -22.6758,0 0,-42.5195 z"
             style="fill:#000000;fill-opacity:1;fill-rule:nonzero;stroke:none"
             id="path3033" /><path
             d="m 1291.36,296.402 22.6758,0 0,42.5195 -22.6758,0 0,-42.5195 z"
             style="fill:#000000;fill-opacity:1;fill-rule:nonzero;stroke:none"
             id="path3035" /><path
             d="m 1325.38,296.402 22.6758,0 0,42.5195 -22.6758,0 0,-42.5195 z"
             style="fill:#000000;fill-opacity:1;fill-rule:nonzero;stroke:none"
             id="path3037" /><path
             d="m 1359.39,296.402 22.6758,0 0,42.5195 -22.6758,0 0,-42.5195 z"
             style="fill:#000000;fill-opacity:1;fill-rule:nonzero;stroke:none"
             id="path3039" /><path
             d="m 1393.41,296.402 22.6758,0 0,42.5195 -22.6758,0 0,-42.5195 z"
             style="fill:#000000;fill-opacity:1;fill-rule:nonzero;stroke:none"
             id="path3041" /><path
             d="m 1427.43,296.402 22.6758,0 0,42.5195 -22.6758,0 0,-42.5195 z"
             style="fill:#000000;fill-opacity:1;fill-rule:nonzero;stroke:none"
             id="path3043" /><path
             d="m 1461.44,296.402 22.6758,0 0,42.5195 -22.6758,0 0,-42.5195 z"
             style="fill:#000000;fill-opacity:1;fill-rule:nonzero;stroke:none"
             id="path3045" /><path
             d="m 1495.46,296.402 22.6758,0 0,42.5195 -22.6758,0 0,-42.5195 z"
             style="fill:#000000;fill-opacity:1;fill-rule:nonzero;stroke:none"
             id="path3047" /><path
             d="m 1211.99,636.559 c 0,7.824 -6.35,14.175 -14.17,14.175 -7.82,0 -14.18,-6.351 -14.18,-14.175 0,-7.825 6.36,-14.172 14.18,-14.172 7.82,0 14.17,6.347 14.17,14.172"
             style="fill:#000000;fill-opacity:1;fill-rule:nonzero;stroke:none"
             id="path3049" /><path
             d="m 1211.99,310.574 c 0,7.824 -6.35,14.176 -14.17,14.176 -7.82,0 -14.18,-6.352 -14.18,-14.176 0,-7.824 6.36,-14.172 14.18,-14.172 7.82,0 14.17,6.348 14.17,14.172"
             style="fill:#000000;fill-opacity:1;fill-rule:nonzero;stroke:none"
             id="path3051" /><path
             d="m 950.141,609.418 17.0078,0 0,6.37891 -17.0078,0 0,-6.37891 z"
             style="fill:#000000;fill-opacity:1;fill-rule:nonzero;stroke:none"
             id="path3053" /><path
             d="m 950.141,598.363 17.0078,0 0,6.37891 -17.0078,0 0,-6.37891 z"
             style="fill:#000000;fill-opacity:1;fill-rule:nonzero;stroke:none"
             id="path3055" /><path
             d="m 950.141,587.309 17.0078,0 0,6.375 -17.0078,0 0,-6.375 z"
             style="fill:#000000;fill-opacity:1;fill-rule:nonzero;stroke:none"
             id="path3057" /><path
             d="m 950.141,576.254 17.0078,0 0,6.375 -17.0078,0 0,-6.375 z"
             style="fill:#000000;fill-opacity:1;fill-rule:nonzero;stroke:none"
             id="path3059" /><path
             d="m 950.141,565.195 17.0078,0 0,6.37891 -17.0078,0 0,-6.37891 z"
             style="fill:#000000;fill-opacity:1;fill-rule:nonzero;stroke:none"
             id="path3061" /><path
             d="m 1001.16,565.195 17.0078,0 0,6.37891 -17.0078,0 0,-6.37891 z"
             style="fill:#000000;fill-opacity:1;fill-rule:nonzero;stroke:none"
             id="path3063" /><path
             d="m 1001.16,576.254 17.0078,0 0,6.375 -17.0078,0 0,-6.375 z"
             style="fill:#000000;fill-opacity:1;fill-rule:nonzero;stroke:none"
             id="path3065" /><path
             d="m 1001.16,587.309 17.0078,0 0,6.375 -17.0078,0 0,-6.375 z"
             style="fill:#000000;fill-opacity:1;fill-rule:nonzero;stroke:none"
             id="path3067" /><path
             d="m 1001.16,598.363 17.0078,0 0,6.37891 -17.0078,0 0,-6.37891 z"
             style="fill:#000000;fill-opacity:1;fill-rule:nonzero;stroke:none"
             id="path3069" /><path
             d="m 1001.16,609.418 17.0078,0 0,6.37891 -17.0078,0 0,-6.37891 z"
             style="fill:#000000;fill-opacity:1;fill-rule:nonzero;stroke:none"
             id="path3071" /><path
             d="m 1056.09,431.047 36.8516,0 0,42.5195 -36.8516,0 0,-42.5195 z"
             style="fill:#000000;fill-opacity:1;fill-rule:nonzero;stroke:none"
             id="path3073" /><path
             d="m 1109.95,431.047 36.8516,0 0,42.5195 -36.8516,0 0,-42.5195 z"
             style="fill:#000000;fill-opacity:1;fill-rule:nonzero;stroke:none"
             id="path3075" /><path
             d="m 1056.09,490.574 36.8516,0 0,42.5195 -36.8516,0 0,-42.5195 z"
             style="fill:#000000;fill-opacity:1;fill-rule:nonzero;stroke:none"
             id="path3077" /><path
             d="m 1109.95,490.574 36.8516,0 0,42.5195 -36.8516,0 0,-42.5195 z"
             style="fill:#000000;fill-opacity:1;fill-rule:nonzero;stroke:none"
             id="path3079" /><path
             d="m 825.063,557.188 42.5195,0 0,36.8516 -42.5195,0 0,-36.8516 z"
             style="fill:#000000;fill-opacity:1;fill-rule:nonzero;stroke:none"
             id="path3081" /><path
             d="m 825.063,503.332 42.5195,0 0,36.8477 -42.5195,0 0,-36.8477 z"
             style="fill:#000000;fill-opacity:1;fill-rule:nonzero;stroke:none"
             id="path3083" /><path
             d="m 1056.09,368.684 36.8516,0 0,42.5195 -36.8516,0 0,-42.5195 z"
             style="fill:#000000;fill-opacity:1;fill-rule:nonzero;stroke:none"
             id="path3085" /><path
             d="m 1109.95,368.684 36.8516,0 0,42.5195 -36.8516,0 0,-42.5195 z"
             style="fill:#000000;fill-opacity:1;fill-rule:nonzero;stroke:none"
             id="path3087" /></g></g></g></g></svg>