<?xml version="1.0" encoding="UTF-8" standalone="no"?>
<!-- Created with Inkscape (http://www.inkscape.org/) -->

<svg
   xmlns:dc="http://purl.org/dc/elements/1.1/"
   xmlns:cc="http://creativecommons.org/ns#"
   xmlns:rdf="http://www.w3.org/1999/02/22-rdf-syntax-ns#"
   xmlns:svg="http://www.w3.org/2000/svg"
   xmlns="http://www.w3.org/2000/svg"
   xmlns:sodipodi="http://sodipodi.sourceforge.net/DTD/sodipodi-0.dtd"
   xmlns:inkscape="http://www.inkscape.org/namespaces/inkscape"
   id="svg6569"
   version="1.1"
   inkscape:version="0.48.5 r10040"
   width="765"
   height="990"
   xml:space="preserve"
   sodipodi:docname="cream.ps"><metadata
     id="metadata6575"><rdf:RDF><cc:Work
         rdf:about=""><dc:format>image/svg+xml</dc:format><dc:type
           rdf:resource="http://purl.org/dc/dcmitype/StillImage" /><dc:title></dc:title></cc:Work></rdf:RDF></metadata><defs
     id="defs6573"><clipPath
       clipPathUnits="userSpaceOnUse"
       id="clipPath6585"><path
         d="m 180,180 5580,0 0,7740 -5580,0 0,-7740 z"
         id="path6587" /></clipPath></defs><sodipodi:namedview
     pagecolor="#ffffff"
     bordercolor="#666666"
     borderopacity="1"
     objecttolerance="10"
     gridtolerance="10"
     guidetolerance="10"
     inkscape:pageopacity="0"
     inkscape:pageshadow="2"
     inkscape:window-width="1920"
     inkscape:window-height="1017"
     id="namedview6571"
     showgrid="false"
     inkscape:zoom="5.3940105"
     inkscape:cx="244.54615"
     inkscape:cy="80.79959"
     inkscape:window-x="-8"
     inkscape:window-y="-8"
     inkscape:window-maximized="1"
     inkscape:current-layer="g6577" /><g
     id="g6577"
     inkscape:groupmode="layer"
     inkscape:label="ink_ext_XXXXXX"
     transform="matrix(1.25,0,0,-1.25,0,990)"><g
       id="g6579"
       transform="scale(0.1,0.1)"><g
         id="g6581"><g
           id="g6583"
           clip-path="url(#clipPath6585)"><path
             d="m 1384.91,511.859 56.6914,0 0,31.1797 -56.6914,0 0,-31.1797 z"
             style="fill:#000000;fill-opacity:1;fill-rule:nonzero;stroke:none"
             id="path6637" /><path
             d="m 1384.91,463.668 56.6914,0 0,31.1836 -56.6914,0 0,-31.1836 z"
             style="fill:#000000;fill-opacity:1;fill-rule:nonzero;stroke:none"
             id="path6639" /><path
             d="m 1384.91,415.48 56.6914,0 0,31.1797 -56.6914,0 0,-31.1797 z"
             style="fill:#000000;fill-opacity:1;fill-rule:nonzero;stroke:none"
             id="path6641" /><path
             d="m 1498.29,415.48 56.6914,0 0,31.1797 -56.6914,0 0,-31.1797 z"
             style="fill:#000000;fill-opacity:1;fill-rule:nonzero;stroke:none"
             id="path6643" /><path
             d="m 1498.29,463.668 56.6914,0 0,31.1836 -56.6914,0 0,-31.1836 z"
             style="fill:#000000;fill-opacity:1;fill-rule:nonzero;stroke:none"
             id="path6645" /><path
             d="m 1498.29,511.859 56.6914,0 0,31.1797 -56.6914,0 0,-31.1797 z"
             style="fill:#000000;fill-opacity:1;fill-rule:nonzero;stroke:none"
             id="path6647" /><path
             d="m 1331.05,455.164 36.8516,0 0,42.5195 -36.8516,0 0,-42.5195 z"
             style="fill:#000000;fill-opacity:1;fill-rule:nonzero;stroke:none"
             id="path6649" /><path
             d="m 1282.86,455.164 36.8516,0 0,42.5195 -36.8516,0 0,-42.5195 z"
             style="fill:#000000;fill-opacity:1;fill-rule:nonzero;stroke:none"
             id="path6651" /><path
             d="m 1079.05,441.133 36,0 0,108 -36,0 0,-108 z"
             style="fill:#000000;fill-opacity:1;fill-rule:nonzero;stroke:none"
             id="path6653" /><path
             d="m 1043.05,585.133 36,0 0,108 -36,0 0,-108 z"
             style="fill:#000000;fill-opacity:1;fill-rule:nonzero;stroke:none"
             id="path6655" /><path
             d="m 1007.05,441.133 36,0 0,108 -36,0 0,-108 z"
             style="fill:#000000;fill-opacity:1;fill-rule:nonzero;stroke:none"
             id="path6657" /><path
             d="m 971.047,585.133 36,0 0,108 -36,0 0,-108 z"
             style="fill:#000000;fill-opacity:1;fill-rule:nonzero;stroke:none"
             id="path6659" /><path
             d="m 935.047,441.133 36,0 0,108 -36,0 0,-108 z"
             style="fill:#000000;fill-opacity:1;fill-rule:nonzero;stroke:none"
             id="path6661" /><path
             d="m 899.047,585.133 36,0 0,108 -36,0 0,-108 z"
             style="fill:#000000;fill-opacity:1;fill-rule:nonzero;stroke:none"
             id="path6663" /><path
             d="m 863.047,441.133 36,0 0,108 -36,0 0,-108 z"
             style="fill:#000000;fill-opacity:1;fill-rule:nonzero;stroke:none"
             id="path6665" /><path
             d="m 827.047,585.133 36,0 0,108 -36,0 0,-108 z"
             style="fill:#000000;fill-opacity:1;fill-rule:nonzero;stroke:none"
             id="path6667" /><path
             d="m 1358.33,678.891 17.0078,0 0,6.375 -17.0078,0 0,-6.375 z"
             style="fill:#000000;fill-opacity:1;fill-rule:nonzero;stroke:none"
             id="path6669" /><path
             d="m 1358.33,667.832 17.0078,0 0,6.37891 -17.0078,0 0,-6.37891 z"
             style="fill:#000000;fill-opacity:1;fill-rule:nonzero;stroke:none"
             id="path6671" /><path
             d="m 1358.33,656.777 17.0078,0 0,6.37891 -17.0078,0 0,-6.37891 z"
             style="fill:#000000;fill-opacity:1;fill-rule:nonzero;stroke:none"
             id="path6673" /><path
             d="m 1358.33,645.723 17.0078,0 0,6.37891 -17.0078,0 0,-6.37891 z"
             style="fill:#000000;fill-opacity:1;fill-rule:nonzero;stroke:none"
             id="path6675" /><path
             d="m 1358.33,634.668 17.0078,0 0,6.37891 -17.0078,0 0,-6.37891 z"
             style="fill:#000000;fill-opacity:1;fill-rule:nonzero;stroke:none"
             id="path6677" /><path
             d="m 1409.36,634.668 17.0078,0 0,6.37891 -17.0078,0 0,-6.37891 z"
             style="fill:#000000;fill-opacity:1;fill-rule:nonzero;stroke:none"
             id="path6679" /><path
             d="m 1409.36,645.723 17.0078,0 0,6.37891 -17.0078,0 0,-6.37891 z"
             style="fill:#000000;fill-opacity:1;fill-rule:nonzero;stroke:none"
             id="path6681" /><path
             d="m 1409.36,656.777 17.0078,0 0,6.37891 -17.0078,0 0,-6.37891 z"
             style="fill:#000000;fill-opacity:1;fill-rule:nonzero;stroke:none"
             id="path6683" /><path
             d="m 1409.36,667.832 17.0078,0 0,6.37891 -17.0078,0 0,-6.37891 z"
             style="fill:#000000;fill-opacity:1;fill-rule:nonzero;stroke:none"
             id="path6685" /><path
             d="m 1409.36,678.891 17.0078,0 0,6.375 -17.0078,0 0,-6.375 z"
             style="fill:#000000;fill-opacity:1;fill-rule:nonzero;stroke:none"
             id="path6687" /><path
             d="m 1545.06,612.488 42.5195,0 0,36.8516 -42.5195,0 0,-36.8516 z"
             style="fill:#000000;fill-opacity:1;fill-rule:nonzero;stroke:none"
             id="path6689" /><path
             d="m 1545.06,666.348 42.5195,0 0,36.8477 -42.5195,0 0,-36.8477 z"
             style="fill:#000000;fill-opacity:1;fill-rule:nonzero;stroke:none"
             id="path6691" /><path
             d="m 1485.54,612.488 42.5195,0 0,36.8516 -42.5195,0 0,-36.8516 z"
             style="fill:#000000;fill-opacity:1;fill-rule:nonzero;stroke:none"
             id="path6693" /><path
             d="m 1485.54,666.348 42.5195,0 0,36.8477 -42.5195,0 0,-36.8477 z"
             style="fill:#000000;fill-opacity:1;fill-rule:nonzero;stroke:none"
             id="path6695" /><path
             d="m 1220.5,628.078 36.8516,0 0,42.5195 -36.8516,0 0,-42.5195 z"
             style="fill:#000000;fill-opacity:1;fill-rule:nonzero;stroke:none"
             id="path6697" /><path
             d="m 1166.64,628.078 36.8516,0 0,42.5195 -36.8516,0 0,-42.5195 z"
             style="fill:#000000;fill-opacity:1;fill-rule:nonzero;stroke:none"
             id="path6699" /><path
             d="m 1607.43,612.488 42.5195,0 0,36.8516 -42.5195,0 0,-36.8516 z"
             style="fill:#000000;fill-opacity:1;fill-rule:nonzero;stroke:none"
             id="path6701" /><path
             d="m 1607.43,666.348 42.5195,0 0,36.8477 -42.5195,0 0,-36.8477 z"
             style="fill:#000000;fill-opacity:1;fill-rule:nonzero;stroke:none"
             id="path6703" /></g></g></g></g></svg>